<?xml version="1.0" encoding="utf-8"?>
<!-- Generator: Adobe Illustrator 17.0.0, SVG Export Plug-In . SVG Version: 6.00 Build 0)  -->
<!DOCTYPE svg PUBLIC "-//W3C//DTD SVG 1.1//EN" "http://www.w3.org/Graphics/SVG/1.1/DTD/svg11.dtd">
<svg version="1.1" id="Layer_1" xmlns="http://www.w3.org/2000/svg" xmlns:xlink="http://www.w3.org/1999/xlink" x="0px" y="0px"
	 width="40px" height="40px" viewBox="0 0 40 40" enable-background="new 0 0 40 40" xml:space="preserve">
<path display="none" fill="#FFFFFF" d="M9.5,13.999c0-0.84,0.66-1.5,1.5-1.5h18c0.84,0,1.5,0.66,1.5,1.5c0,0.779-0.66,1.5-1.5,1.5
	H11C10.16,15.499,9.5,14.779,9.5,13.999z M30.5,19.999c0,0.782-0.66,1.5-1.5,1.5H11c-0.84,0-1.5-0.718-1.5-1.5
	c0-0.838,0.66-1.5,1.5-1.5h18C29.84,18.499,30.5,19.161,30.5,19.999z M30.5,26.001c0,0.779-0.66,1.5-1.5,1.5H11
	c-0.84,0-1.5-0.721-1.5-1.5c0-0.84,0.66-1.5,1.5-1.5h18C29.84,24.501,30.5,25.16,30.5,26.001z"/>
<path fill="#FFFFFF" d="M26.278,27.024c-0.694,0.635-1.793,0.635-2.485,0l-3.814-4.395l-3.816,4.395
	c-0.692,0.635-1.791,0.635-2.485,0c-0.635-0.696-0.635-1.793,0-2.485l3.988-4.508l-3.988-4.569c-0.635-0.692-0.635-1.788,0-2.485
	c0.694-0.635,1.793-0.635,2.485,0l3.816,4.395l3.814-4.395c0.692-0.635,1.791-0.635,2.485,0c0.694,0.696,0.694,1.793,0,2.485
	l-3.988,4.569l3.988,4.508C26.972,25.231,26.972,26.327,26.278,27.024z"/>
</svg>
