<?xml version="1.0" encoding="utf-8"?>
<!-- Generator: Adobe Illustrator 17.0.0, SVG Export Plug-In . SVG Version: 6.00 Build 0)  -->
<!DOCTYPE svg PUBLIC "-//W3C//DTD SVG 1.1//EN" "http://www.w3.org/Graphics/SVG/1.1/DTD/svg11.dtd">
<svg version="1.1" id="Layer_1" xmlns="http://www.w3.org/2000/svg" xmlns:xlink="http://www.w3.org/1999/xlink" x="0px" y="0px"
	 width="40px" height="40px" viewBox="0 0 40 40" enable-background="new 0 0 40 40" xml:space="preserve">
<rect width="40" height="40"/>
<g>
	<path fill="#FFFFFF" d="M10.305,14.043c0-0.8,0.628-1.428,1.428-1.428h17.143c0.8,0,1.428,0.628,1.428,1.428
		c0,0.742-0.628,1.428-1.428,1.428H11.734C10.934,15.471,10.305,14.785,10.305,14.043z M30.305,19.757
		c0,0.744-0.628,1.428-1.428,1.428H11.734c-0.8,0-1.428-0.684-1.428-1.428c0-0.8,0.628-1.428,1.428-1.428h17.143
		C29.677,18.328,30.305,18.956,30.305,19.757z M30.305,25.473c0,0.742-0.628,1.428-1.428,1.428H11.734
		c-0.8,0-1.428-0.686-1.428-1.428c0-0.8,0.628-1.428,1.428-1.428h17.143C29.677,24.044,30.305,24.672,30.305,25.473z"/>
</g>
</svg>
