<?xml version="1.0" encoding="utf-8"?>
<!-- Generator: Adobe Illustrator 17.0.0, SVG Export Plug-In . SVG Version: 6.00 Build 0)  -->
<!DOCTYPE svg PUBLIC "-//W3C//DTD SVG 1.1//EN" "http://www.w3.org/Graphics/SVG/1.1/DTD/svg11.dtd">
<svg version="1.1" id="Layer_1" xmlns="http://www.w3.org/2000/svg" xmlns:xlink="http://www.w3.org/1999/xlink" x="0px" y="0px"
	 width="40px" height="40px" viewBox="0 0 40 40" enable-background="new 0 0 40 40" xml:space="preserve">
<path display="none" fill="#FFFFFF" d="M9.5,13.999c0-0.84,0.66-1.5,1.5-1.5h18c0.84,0,1.5,0.66,1.5,1.5c0,0.779-0.66,1.5-1.5,1.5
	H11C10.16,15.499,9.5,14.779,9.5,13.999z M30.5,19.999c0,0.782-0.66,1.5-1.5,1.5H11c-0.84,0-1.5-0.718-1.5-1.5
	c0-0.838,0.66-1.5,1.5-1.5h18C29.84,18.499,30.5,19.161,30.5,19.999z M30.5,26.001c0,0.779-0.66,1.5-1.5,1.5H11
	c-0.84,0-1.5-0.721-1.5-1.5c0-0.84,0.66-1.5,1.5-1.5h18C29.84,24.501,30.5,25.16,30.5,26.001z"/>
<g>
	<path fill="#FFFFFF" d="M23.935,18.991c0.256,0.256,0.41,0.614,0.41,1.026c0,0.358-0.154,0.716-0.41,0.972
		c0,0-5.226,5.481-5.789,6.044c-0.513,0.513-1.486,0.564-2.05,0c-0.564-0.563-0.614-1.33,0-2.048l4.765-4.969l-4.765-5.021
		c-0.614-0.717-0.564-1.485,0-2.049c0.564-0.512,1.537-0.512,2.05,0C18.71,13.51,23.935,18.991,23.935,18.991z"/>
</g>
</svg>
